Coordinates
version=1
nRows=22
nColumns=24
inDegrees=yes

Units are S.I. units (second, meters, Newtons, ...)
Angles are in degrees.

endheader
time	pelvis_tilt	pelvis_list	pelvis_rotation	pelvis_tx	pelvis_ty	pelvis_tz	hip_flexion_r	hip_adduction_r	hip_rotation_r	knee_angle_r	ankle_angle_r	subtalar_angle_r	mtp_angle_r	hip_flexion_l	hip_adduction_l	hip_rotation_l	knee_angle_l	ankle_angle_l	subtalar_angle_l	mtp_angle_l	lumbar_extension	lumbar_bending	lumbar_rotation
      1.32316667	     -0.72622067	     -0.41865285	     -5.12404162	      0.91188112	      0.96934241	      0.32874585	    -19.69754945	      0.93240282	      0.01586165	     -6.36304610	     17.76307044	      0.63882793	      3.98273000	     25.13335033	     -2.60627884	     -2.07685943	      7.67578705	      1.83073339	     -3.29328834	      1.28078062	    -13.41573392	      5.70417951	      9.05396471
      1.32733333	     -0.71968018	     -0.30465299	     -5.16833416	      0.91780567	      0.96860781	      0.32831416	    -19.89570432	      0.71713464	     -0.17660747	     -6.68617913	     17.76712250	      1.01778853	      4.18607015	     25.19679435	     -2.46486316	     -1.78541339	      7.19919336	      1.82216708	     -3.49348722	      1.30011142	    -13.39111045	      5.50817285	      9.17117351
      1.33150000	     -0.73175991	     -0.16511841	     -5.23439205	      0.92376886	      0.96788557	      0.32791801	    -20.06840066	      0.47535283	     -0.27622651	     -7.01487556	     17.72193665	      1.19009071	      4.73754095	     25.26665569	     -2.30521258	     -1.49983600	      6.69602557	      1.78758168	     -3.79708811	      1.37773692	    -13.33565181	      5.29395813	      9.20067044
      1.33566667	     -0.74031367	     -0.05007625	     -5.26823586	      0.92977954	      0.96719545	      0.32749905	    -20.28307775	      0.27712699	     -0.32565248	     -7.26344189	     17.50063796	      1.18140870	      4.79593617	     25.36432221	     -2.15403656	     -1.26639583	      6.09878120	      1.80158293	     -3.89601866	      1.38834726	    -13.27805610	      5.11390193	      9.22581032
      1.33983333	     -0.76723030	      0.10019900	     -5.30190030	      0.93586080	      0.96650254	      0.32704670	    -20.46389397	      0.04024010	     -0.40235221	     -7.54139935	     17.31583430	      1.24361610	      4.92297001	     25.45730165	     -1.96259413	     -0.97969043	      5.51051611	      1.72241555	     -4.13438120	      1.41045181	    -13.19806667	      4.88557384	      9.27888971
      1.34400000	     -0.78791662	      0.24805753	     -5.34614284	      0.94195830	      0.96582840	      0.32657038	    -20.62307138	     -0.20376120	     -0.52240194	     -7.87844396	     17.17424958	      1.39567243	      5.23007580	     25.52773378	     -1.76946381	     -0.66070864	      4.94463997	      1.44407089	     -4.61111701	      1.46201132	    -13.12288503	      4.68425381	      9.36818038
      1.34816667	     -0.80130835	      0.41322286	     -5.39169161	      0.94812149	      0.96520174	      0.32612400	    -20.79613736	     -0.45865839	     -0.58814858	     -8.20139802	     16.92119564	      1.36814733	      5.34742684	     25.60551302	     -1.55808116	     -0.45430116	      4.31170120	      1.26956069	     -4.81622126	      1.48511908	    -13.03337270	      4.43110713	      9.36935918
      1.35233333	     -0.83804710	      0.58035173	     -5.43421989	      0.95430668	      0.96455726	      0.32559714	    -20.92175347	     -0.72256008	     -0.70338277	     -8.56815294	     16.73007356	      1.49485876	      5.78194398	     25.67015746	     -1.33337683	     -0.08517710	      3.75212478	      0.80161304	     -5.47573239	      1.57728427	    -12.93706200	      4.21067096	      9.45335338
      1.35650000	     -0.75892522	      0.78187956	     -5.42139099	      0.96059388	      0.96408400	      0.32503783	    -21.21918613	     -1.00654406	     -0.87704311	     -8.82846010	     16.29821645	      1.40662973	     10.18332760	     25.61502998	     -1.04004110	      0.23382738	      3.17530363	      0.37856778	     -5.93335192	      2.61169072	    -12.97303865	      3.94504238	      9.34079335
      1.36066667	     -0.90612644	      0.96307739	     -5.51246673	      0.96684228	      0.96337808	      0.32456970	    -21.18141158	     -1.28572401	     -0.88280652	     -9.27793564	     16.05984846	      1.39424626	     10.29114256	     25.83363252	     -0.82496243	      0.37298812	      2.50373541	     -0.06520758	     -6.34297773	      2.62170180	    -12.71658877	      3.69145915	      9.49895420
      1.36483333	     -0.94416354	      1.18246193	     -5.54800733	      0.97317724	      0.96282155	      0.32401915	    -21.28738211	     -1.59717282	     -1.00559570	     -9.67240222	     15.73898449	      1.40337525	     10.47864130	     25.90138786	     -0.53294415	      0.63221883	      1.91117063	     -0.68065022	     -6.94927837	      2.65204152	    -12.59084625	      3.39701304	      9.53528996
      1.36900000	     -0.99840794	      1.40608460	     -5.58379136	      0.97954574	      0.96227776	      0.32345903	    -21.36444034	     -1.90966735	     -1.11397090	    -10.08806779	     15.38810999	      1.37674784	     10.72029227	     25.99549662	     -0.23462645	      0.84794493	      1.29613529	     -1.33441997	     -7.52154715	      2.70449133	    -12.44304175	      3.10514583	      9.56270635
      1.37316667	     -1.04395246	      1.64457920	     -5.61510849	      0.98593197	      0.96177238	      0.32286727	    -21.42482697	     -2.23962859	     -1.25656206	    -10.55194324	     14.97592775	      1.33471033	     11.13023772	     26.06609322	      0.08616570	      1.11633092	      0.71127027	     -2.04009564	     -8.20489840	      2.79639001	    -12.31584774	      2.79283493	      9.58752083
      1.37733333	     -1.11265906	      1.89507440	     -5.64677962	      0.99236261	      0.96127619	      0.32227715	    -21.45378818	     -2.57745451	     -1.38562784	    -11.02383710	     14.55161292	      1.27501569	     11.63277728	     26.17348823	      0.41854401	      1.31181799	      0.09927516	     -2.81402562	     -8.84914504	      2.90904010	    -12.14295080	      2.46910210	      9.61376738
      1.38150000	     -1.18656734	      2.15842476	     -5.67596858	      0.99883418	      0.96081665	      0.32168287	    -21.47963094	     -2.92328126	     -1.48368916	    -11.48469635	     14.12861161	      1.17689813	     12.08537508	     26.30220343	      0.76548015	      1.42631375	     -0.54363597	     -3.65714608	     -9.46696696	      3.00806144	    -11.94850646	      2.13803602	      9.62894016
      1.38566667	     -1.26185377	      2.43253352	     -5.69136268	      1.00531809	      0.96038153	      0.32104782	    -21.47302161	     -3.27818696	     -1.63101611	    -12.00607203	     13.63020839	      1.07087360	     12.63076070	     26.43087010	      1.13228585	      1.57762713	     -1.18500303	     -4.49565713	    -10.13367634	      3.12193989	    -11.76279110	      1.79198362	      9.63419183
      1.38983333	     -1.30415935	      2.74354496	     -5.69724477	      1.01186397	      0.96001484	      0.32040063	    -21.49597485	     -3.67341587	     -1.83282699	    -12.52260897	     13.01216957	      0.87323683	     18.91562621	     26.53863795	      1.54089844	      1.65955718	     -1.85631883	     -5.25720171	    -10.64850620	      4.35103994	    -11.61164719	      1.39448092	      9.57825907
      1.39400000	     -1.41106625	      3.03023107	     -5.72148242	      1.01840407	      0.95963311	      0.31977891	    -21.42805589	     -4.03655842	     -1.92814084	    -13.08147272	     12.42644698	      0.70531342	     18.98535002	     26.72374802	      1.91040828	      1.69339900	     -2.55233544	     -6.08349907	    -11.20748671	      4.33230922	    -11.37665756	      1.03671660	      9.63612481
      1.39816667	     -1.49125025	      3.34389616	     -5.73239772	      1.02495713	      0.95930867	      0.31912109	    -21.36460240	     -4.42819425	     -2.07179957	    -13.68656555	     11.83452747	      0.54958156	     19.13230676	     26.87728875	      2.31854093	      1.77362844	     -3.24146185	     -6.90443816	    -11.82422965	      4.31847422	    -11.18081218	      0.64672946	      9.63382098
      1.40233333	     -1.57129163	      3.66674567	     -5.73996399	      1.03152675	      0.95901862	      0.31844441	    -21.27982076	     -4.82893451	     -2.22072686	    -14.32801787	     11.20245676	      0.37611513	     19.35043830	     27.05252403	      2.73737683	      1.81837891	     -3.98088910	     -7.65460529	    -12.40641963	      4.30368940	    -10.97753926	      0.24629826	      9.63539255
      1.40650000	     -1.65533393	      4.00442743	     -5.74564902	      1.03809283	      0.95876929	      0.31776001	    -21.16526196	     -5.24422705	     -2.36840607	    -15.01035136	     10.53632225	      0.18955970	     19.66532296	     27.23017650	      3.17187109	      1.86103466	     -4.72789542	     -8.36582624	    -12.99778762	      4.28281713	    -10.77404584	     -0.16844323	      9.63510599
      1.41066667	     -1.68638596	      4.38107129	     -5.72496911	      1.04474288	      0.95859493	      0.31703380	    -21.10609105	     -5.70060978	     -2.59838729	    -15.69455493	      9.80109004	     -0.04297655	     24.39854281	     27.37061225	      3.66240699	      1.88906397	     -5.52155972	     -8.92364379	    -13.50784908	      4.08936817	    -10.61464683	     -0.65049047	      9.56507531
